<svg xmlns="http://www.w3.org/2000/svg"><defs><style>.icon { display: none; }.icon:target { display: inline; }</style></defs><svg viewBox="0 0 61.85866 64"><g id="src-1" class="icon">
<path d="M61.5463 44.1952L44.6599 27.1851L46.534 17.9541C47.0176 18.1429 47.5318 18.2416 48.0508 18.2453H48.0636C50.4482 18.2735 52.404 16.3633 52.4323 13.9788C52.4606 11.5943 50.5503 9.6384 48.1658 9.61013C45.7812 9.582 43.8254 11.4921 43.7971 13.8767C43.7911 14.3869 43.8755 14.8941 44.0466 15.3749L34.1266 16.5856L17.9452 0.32C17.7467 0.117467 17.4757 0.00226667 17.1921 0C16.9121 0.00146667 16.644 0.112933 16.4455 0.3104L13.4204 3.3184C13.004 3.73493 13.004 4.41013 13.4204 4.82667L15.0481 6.47787C8.74201 18.0737 10.7903 32.4335 20.0871 41.8037C20.1724 41.8853 20.2713 41.9513 20.3793 41.9989C20.3121 42.3599 20.2771 42.7261 20.2748 43.0933V55.4667H7.47481C4.53081 55.4701 2.14495 57.856 2.14148 60.8V62.9333C2.14148 63.5224 2.61908 64 3.20815 64H52.2748C52.8639 64 53.3415 63.5224 53.3415 62.9333V60.8C53.338 57.856 50.9522 55.4701 48.0082 55.4667H35.2082V49.9829C37.2134 50.4035 39.2564 50.6179 41.3052 50.6229C46.2215 50.6176 51.0595 49.392 55.3852 47.056L57.0215 48.7019C57.22 48.9044 57.491 49.0196 57.7746 49.0219C58.0546 49.0204 58.3227 48.9089 58.5212 48.7115L61.5463 45.7035C61.9627 45.2869 61.9627 44.6117 61.5463 44.1952ZM46.5596 12.4661C47.395 11.6352 48.7458 11.6389 49.5766 12.4743C50.4075 13.3096 50.4038 14.6604 49.5684 15.4912C49.1686 15.8889 48.6275 16.1121 48.0635 16.112H48.0571C46.879 16.1059 45.9287 15.1459 45.9348 13.9676C45.9378 13.4036 46.1639 12.8639 46.5638 12.4661H46.5596ZM44.0487 19.4752L42.8519 25.3664L40.5009 23.0016L44.0487 19.4752ZM42.837 17.6715L38.997 21.4891L36.0263 18.5024L42.837 17.6715ZM48.0082 57.6C49.7755 57.6 51.2082 59.0327 51.2082 60.8V61.8667H4.27481V60.8C4.27481 59.0327 5.70748 57.6 7.47481 57.6H48.0082ZM33.0748 53.3333V55.4667H22.4081V53.3333H33.0748ZM22.4081 51.2V43.0933C22.4081 40.5056 24.8007 38.4 27.7415 38.4C30.6823 38.4 33.0748 40.5056 33.0748 43.0933V51.2H22.4081ZM35.2082 47.808V43.0933C35.2082 39.3291 31.8588 36.2667 27.7415 36.2667C25.0793 36.2259 22.59 37.5809 21.1793 39.8389C13.0639 31.2913 11.2364 18.5485 16.6221 8.06467L53.8258 45.4816C48.081 48.404 41.4955 49.2268 35.2082 47.808ZM57.7863 46.4405L56.2834 44.9291L17.1815 5.59147L15.6721 4.07893L17.1815 2.57493L33.0513 18.5344C33.0588 18.5344 33.0631 18.5483 33.0706 18.5536L59.2999 44.9365L57.7863 46.4405Z" fill="#000"/>
<path d="M27.7511 40.5333H27.7415C25.9742 40.5306 24.5394 41.9612 24.5367 43.7285C24.534 45.4958 25.9646 46.9306 27.7319 46.9333H27.7415C29.5088 46.936 30.9436 45.5054 30.9463 43.7381C30.9489 41.9708 29.5184 40.536 27.7511 40.5333ZM28.4978 44.4896C28.297 44.6893 28.0248 44.801 27.7415 44.8C27.1524 44.7969 26.6774 44.3169 26.6804 43.7278C26.6819 43.4458 26.795 43.176 26.9948 42.977C27.1934 42.7796 27.4615 42.6681 27.7415 42.6666C28.3306 42.6697 28.8056 43.1497 28.8026 43.7388C28.8011 44.0208 28.688 44.2906 28.4882 44.4896H28.4978Z" fill="#000"/>
</g></svg><svg viewBox="0 0 64.00004 60.242664"><g id="src-2" class="icon">
<path d="M63.9481 9.04812C63.8222 8.66299 63.4895 8.38149 63.0873 8.32274L59.2665 7.76698L57.5566 4.30455C57.1983 3.57492 56.0025 3.57492 55.6441 4.30455L53.9342 7.76698L50.1133 8.32286C49.7112 8.38149 49.3784 8.66212 49.2514 9.04825C49.1266 9.43438 49.23 9.85889 49.5213 10.1416L52.2872 12.8372L51.6344 16.6431C51.5662 17.0431 51.7304 17.4474 52.0579 17.6864C52.3897 17.9275 52.8227 17.9573 53.1822 17.7674L56.5999 15.97L60.0176 17.7674C60.1733 17.8495 60.3451 17.89 60.5147 17.89C60.7354 17.89 60.9563 17.8218 61.1419 17.6863C61.4704 17.4474 61.6347 17.043 61.5654 16.643L60.9127 12.8371L63.6786 10.1415C63.9684 9.85776 64.073 9.43425 63.9481 9.04812ZM59.0223 11.702C58.7717 11.9463 58.6564 12.3004 58.7162 12.6461L59.098 14.8743L57.097 13.8226C56.9413 13.7404 56.7706 13.6999 56.5999 13.6999C56.4292 13.6999 56.2596 13.7404 56.1027 13.8226L54.1016 14.8743L54.4835 12.6461C54.5432 12.3004 54.428 11.9474 54.1773 11.702L52.5571 10.1234L54.795 9.79801C55.1427 9.74788 55.4425 9.52926 55.5982 9.2145L56.5988 7.18785L57.5993 9.2145C57.755 9.52913 58.0548 9.74788 58.4025 9.79801L60.6404 10.1234L59.0223 11.702Z" fill="#000"/>
<path d="M52.2669 41.0444H50.1335V43.1778H52.2669V41.0444Z" fill="#000"/>
<path d="M52.2669 45.3112H50.1335V47.4446H52.2669V45.3112Z" fill="#000"/>
<path d="M54.4003 43.1778H52.2669V45.3112H54.4003V43.1778Z" fill="#000"/>
<path d="M50.1337 43.1778H48.0003V45.3112H50.1337V43.1778Z" fill="#000"/>
<path d="M44.8002 52.778H42.6668V54.9113H44.8002V52.778Z" fill="#000"/>
<path d="M44.8002 57.0446H42.6668V59.1781H44.8002V57.0446Z" fill="#000"/>
<path d="M46.9336 54.9113H44.8002V57.0448H46.9336V54.9113Z" fill="#000"/>
<path d="M42.6668 54.9113H40.5334V57.0448H42.6668V54.9113Z" fill="#000"/>
<path d="M32 48.5113H29.8666V50.6447H32V48.5113Z" fill="#000"/>
<path d="M32 52.778H29.8666V54.9113H32V52.778Z" fill="#000"/>
<path d="M34.1334 50.6445H32V52.7779H34.1334V50.6445Z" fill="#000"/>
<path d="M29.8666 50.6445H27.7332V52.7779H29.8666V50.6445Z" fill="#000"/>
<path d="M11.733 12.2439H9.59964V14.3773H11.733V12.2439Z" fill="#000"/>
<path d="M11.733 16.5108H9.59964V18.6442H11.733V16.5108Z" fill="#000"/>
<path d="M13.8663 14.3774H11.7329V16.5108H13.8663V14.3774Z" fill="#000"/>
<path d="M9.59964 14.3774H7.46624V16.5108H9.59964V14.3774Z" fill="#000"/>
<path d="M49.4295 28.3189C48.8546 27.5434 48.0109 27.0443 47.053 26.9098C46.0909 26.7733 45.1415 27.026 44.3734 27.6138L41.8699 29.5327L41.8688 29.5338L38.0735 32.368L35.3577 31.2864C40.2004 29.1136 43.5851 24.2698 43.5851 18.6462C43.5851 11.0002 37.3396 4.77933 29.6627 4.77933C21.9858 4.77933 15.7405 11.0002 15.7405 18.6462C15.7405 21.4175 16.5693 23.9945 17.9805 26.163L12.4529 26.115C12.4497 26.115 12.4466 26.115 12.4433 26.115C12.4262 26.115 12.4124 26.1235 12.3964 26.1247C12.2908 26.1289 12.1873 26.1503 12.0861 26.1865C12.0604 26.1962 12.0338 26.2015 12.0093 26.2132C11.9966 26.2185 11.9837 26.2195 11.9709 26.2259L5.50471 29.4185C5.50359 29.4185 5.50259 29.4185 5.50259 29.4195L1.71578 31.2405C1.67415 31.2586 1.63153 31.2831 1.5899 31.3109C0.0805013 32.3156 -0.433632 34.289 0.393131 35.9018C0.833638 36.7594 1.58352 37.391 2.50516 37.68C2.86042 37.7908 3.22305 37.8453 3.58356 37.8453C4.16282 37.8453 4.7367 37.7035 5.26246 37.423L8.038 35.9467L12.5661 33.6085L15.2797 33.5925L4.39632 44.4237C4.39532 44.4248 4.39419 44.4248 4.39307 44.4258L1.71565 47.0925C1.08314 47.7219 0.735387 48.557 0.735387 49.4478C0.735387 50.3374 1.08314 51.1747 1.71565 51.8052C2.36529 52.4516 3.21968 52.7758 4.07406 52.7758C4.92958 52.7758 5.78284 52.4516 6.4346 51.8052L9.06289 49.1875L12.5446 46.588L14.3462 48.3821L10.8229 51.8904C10.8219 51.8916 10.8208 51.8916 10.8197 51.8926L8.14225 54.5592C7.50974 55.1886 7.16199 56.0237 7.16199 56.9145C7.16199 57.8041 7.50974 58.6414 8.14225 59.2719C8.79189 59.9183 9.6474 60.2426 10.5018 60.2426C11.3562 60.2426 12.2117 59.9183 12.8623 59.2719L15.5407 56.6052L19.8256 52.3386C19.8267 52.3374 19.8267 52.3364 19.8277 52.3353L21.847 50.3353L21.8395 50.3278C21.8522 50.315 21.8703 50.3106 21.8832 50.2969L32.2151 38.9805L39.1571 39.9682C39.2072 39.9757 39.2574 39.9789 39.3075 39.9789C39.4366 39.9789 39.5614 39.948 39.6819 39.9021C39.7171 39.8894 39.748 39.8722 39.7811 39.8552C39.8195 39.836 39.86 39.8254 39.8964 39.8009L46.3231 35.5342C46.3466 35.5182 46.3594 35.4925 46.3817 35.4755C46.4074 35.4553 46.4394 35.4468 46.4627 35.4243L49.0056 33.0424C50.3288 31.8026 50.5112 29.7717 49.4295 28.3189ZM4.26082 35.5403C3.91419 35.7259 3.52056 35.7632 3.14405 35.6438C2.77067 35.5275 2.46779 35.2725 2.29066 34.928C1.96853 34.3008 2.15516 33.537 2.71942 33.1243L5.34671 31.8602L5.97922 33.7088L6.24485 34.4853L4.26082 35.5403ZM11.2551 31.8849L8.1585 33.4849L7.64762 31.9915L7.28074 30.9184L11.3342 28.9172L11.2551 31.8849ZM41.4539 18.644C41.4539 20.4808 41.0155 22.2132 40.256 23.763L31.8933 19.9646C31.8057 18.8179 31.2106 17.8142 30.3167 17.189L33.2448 7.46837C38.0001 8.98102 41.4539 13.4173 41.4539 18.644ZM17.876 18.644C17.876 12.1746 23.1646 6.91049 29.665 6.91049C30.1706 6.91049 30.6655 6.95311 31.1551 7.01499L28.2911 16.5224C28.2527 16.5213 28.2164 16.5106 28.1769 16.5106C26.1118 16.5106 24.4318 18.1853 24.4318 20.2441C24.4318 22.3027 26.1118 23.9775 28.1769 23.9775C29.5657 23.9775 30.7657 23.2106 31.4132 22.0883L39.1381 25.5978C36.9887 28.4906 33.5487 30.3776 29.6648 30.3776C23.1646 30.3776 17.876 25.1135 17.876 18.644ZM29.7887 20.2441C29.7887 21.1262 29.0655 21.8441 28.1769 21.8441C27.2884 21.8441 26.5652 21.1262 26.5652 20.2441C26.5652 19.3619 27.2884 18.644 28.1769 18.644C29.0655 18.644 29.7887 19.3619 29.7887 20.2441ZM4.9297 50.2925C4.4572 50.7608 3.69231 50.7598 3.22093 50.2936C2.99367 50.0664 2.86892 49.7668 2.86892 49.4478C2.86892 49.1299 2.99367 48.8301 3.22093 48.6051L5.14508 46.6882L6.84748 48.3832L4.9297 50.2925ZM11.3574 57.7594C10.8849 58.2276 10.119 58.2288 9.64753 57.7605C9.42027 57.5333 9.29552 57.2336 9.29552 56.9146C9.29552 56.5967 9.42027 56.297 9.64753 56.072L11.5729 54.1541L12.3783 54.9552L13.2765 55.8491L11.3574 57.7594ZM18.3208 50.8217C18.3197 50.8227 18.3187 50.8227 18.3175 50.8238L14.7879 54.3438L13.9825 53.5427L13.0843 52.6488L16.6108 49.1384C16.6108 49.1384 16.6108 49.1384 16.6108 49.1374C16.6119 49.1363 16.6129 49.1363 16.614 49.1353C16.694 49.0553 16.7441 48.9593 16.7933 48.8644C16.8071 48.8366 16.8338 48.8131 16.8455 48.7844C16.8786 48.7023 16.8839 48.6138 16.8968 48.5272C16.9031 48.4781 16.9245 48.4324 16.9245 48.3821C16.9245 48.3106 16.8989 48.2414 16.884 48.1709C16.8713 48.1069 16.8713 48.0417 16.8466 47.98C16.8061 47.8797 16.7368 47.7912 16.6643 47.7047C16.644 47.6812 16.6365 47.6514 16.6141 47.629C16.6141 47.629 16.6141 47.629 16.613 47.629C16.6119 47.628 16.6119 47.6257 16.6109 47.6247L13.397 44.4247C13.3628 44.3906 13.3191 44.3767 13.2807 44.3479C13.2242 44.3042 13.1698 44.2637 13.1068 44.2327C13.0461 44.2028 12.9842 44.1847 12.9202 44.1676C12.852 44.1483 12.7858 44.1334 12.7143 44.1281C12.6492 44.1238 12.5884 44.1302 12.5234 44.1377C12.4519 44.1462 12.3848 44.1558 12.3154 44.1782C12.2482 44.1996 12.1886 44.2326 12.1267 44.2678C12.0872 44.2902 12.0424 44.2977 12.0051 44.3254L8.45838 46.973L6.65673 45.1788L11.4547 40.4065L20.1759 48.9838L18.3208 50.8217ZM31.9584 36.7883C31.9275 36.7841 31.8986 36.7958 31.8678 36.7937C31.7899 36.7894 31.7153 36.7948 31.6374 36.8076C31.5766 36.8182 31.519 36.8299 31.4614 36.8502C31.3931 36.8737 31.3312 36.9057 31.2682 36.9441C31.2085 36.9803 31.1541 37.0187 31.1019 37.0667C31.0762 37.0891 31.0454 37.0998 31.0219 37.1253L21.6253 47.4167L12.9692 38.9035L18.6354 33.2671C19.0525 32.8511 19.0547 32.1759 18.6387 31.7577C18.4285 31.5476 18.1523 31.4441 17.876 31.4452V31.4442L13.4386 31.4709L13.4941 28.2559L19.7022 28.3093C22.2324 30.8971 25.7609 32.511 29.665 32.511C30.5396 32.511 31.393 32.4204 32.2239 32.2656C32.3039 32.3296 32.3828 32.3948 32.4831 32.4353L37.3025 34.3553L37.6075 35.8721L37.9637 37.6427L31.9584 36.7883ZM40.0406 37.1446L39.4145 34.0288L42.3073 31.8687L43.0647 32.8735L44.2007 34.3818L40.0406 37.1446ZM47.5479 31.4826L45.8721 33.0528L44.0097 30.5802L45.6726 29.3056C45.983 29.0667 46.3745 28.9696 46.7585 29.0197C47.1446 29.0741 47.486 29.2757 47.7185 29.5882C48.1516 30.1717 48.078 30.9856 47.5479 31.4826Z" fill="#000"/>
<path d="M27.2042 37.0881L22.9182 32.8214C22.5033 32.4065 21.8291 32.4065 21.4131 32.8214L17.1283 37.0881C16.9278 37.2897 16.8146 37.5606 16.8146 37.8443C16.8146 38.1281 16.9266 38.4001 17.1283 38.6006L21.4131 42.8673C21.6211 43.0742 21.8942 43.1777 22.1662 43.1777C22.4382 43.1777 22.7112 43.0742 22.9182 42.8673L27.2042 38.6006C27.4047 38.4001 27.5188 38.1281 27.5188 37.8443C27.5188 37.5606 27.4057 37.2886 27.2042 37.0881ZM22.1662 40.606L19.3928 37.8443L22.1662 35.0827L24.9406 37.8443L22.1662 40.606Z" fill="#000"/>
<path d="M34.3285 10.1415L33.8133 12.2131C33.9552 12.2483 37.2886 13.1166 37.2886 16.5108H39.422C39.4219 12.4765 36.0907 10.5799 34.3285 10.1415Z" fill="#000"/>
<path d="M39.422 18.644H37.2886V20.7775H39.422V18.644Z" fill="#000"/>
</g></svg><svg viewBox="0 0 62.593334 63.999786"><g id="src-3" class="icon">
<g clip-path="url(#clip0_302815_4220)">
<path d="M62.5933 30.6025C62.5899 13.6978 48.8828 -0.00341734 31.9775 6.39362e-07C15.0728 0.00341861 1.37158 13.7109 1.375 30.6157C1.37793 43.9316 9.98877 55.7178 22.6738 59.7681C22.7949 59.8062 22.9209 59.8257 23.0474 59.8252C23.2886 59.8247 23.5249 59.7603 23.7324 59.6377C24.0024 59.478 24.2041 59.2241 24.2988 58.9248L32.0288 34.4248C34.1421 34.4141 35.8462 32.6919 35.835 30.5791C35.8242 28.4658 34.1025 26.7617 31.9893 26.7725C31.4209 26.7749 30.8599 26.9058 30.3491 27.1553L20.1372 16.9419C19.6304 16.4526 18.8232 16.4668 18.334 16.9731C17.8564 17.4678 17.8564 18.251 18.334 18.7456L28.5405 28.9639C27.7573 30.5625 28.2051 32.4922 29.6133 33.582L22.248 56.9277C7.69238 51.5659 0.239258 35.4199 5.60108 20.8643C10.9629 6.30859 27.1089 -1.14453 41.6646 4.21729C56.2202 9.5791 63.6733 25.7256 58.3115 40.2808C55.6919 47.3921 50.3096 53.1431 43.3872 56.2275L42.5913 52.479C42.4458 51.79 41.7686 51.3496 41.0796 51.4956C40.8623 51.542 40.6606 51.6441 40.4946 51.792L32.8208 58.6431C32.2944 59.1113 32.2476 59.9175 32.7163 60.4439C32.8687 60.6148 33.064 60.7417 33.2827 60.8115L43.0801 63.9385C43.7505 64.1538 44.4688 63.7852 44.6841 63.1143C44.7524 62.9024 44.7637 62.6768 44.7178 62.459L43.9356 58.7808C55.2642 54.0049 62.6196 42.8965 62.5933 30.6025ZM31.9844 29.3272C32.6885 29.3272 33.2598 29.8984 33.2598 30.6025C33.2598 31.3071 32.6885 31.8779 31.9844 31.8779C31.2798 31.8779 30.709 31.3071 30.709 30.6025C30.709 29.8984 31.2798 29.3272 31.9844 29.3272ZM36.1851 59.0552L40.5532 55.1587L41.7588 60.8394L36.1851 59.0552Z" fill="#000"/>
<path d="M30.709 6.37012V8.9209C30.709 9.62549 31.2798 10.1963 31.9844 10.1963C32.6885 10.1963 33.2598 9.62549 33.2598 8.9209V6.37012C33.2598 5.66602 32.6885 5.09473 31.9844 5.09473C31.2798 5.09473 30.709 5.66602 30.709 6.37012Z" fill="#000"/>
<path d="M7.75195 29.3271C7.04736 29.3271 6.47656 29.8984 6.47656 30.6025C6.47656 31.3071 7.04736 31.8779 7.75195 31.8779H10.3027C11.0073 31.8779 11.5781 31.3071 11.5781 30.6025C11.5781 29.8984 11.0073 29.3271 10.3027 29.3271H7.75195Z" fill="#000"/>
<path d="M56.2162 31.8779C56.9208 31.8779 57.4916 31.3071 57.4916 30.6025C57.4916 29.8984 56.9208 29.3271 56.2162 29.3271H53.6655C52.9614 29.3271 52.3901 29.8984 52.3901 30.6025C52.3901 31.3071 52.9614 31.8779 53.6655 31.8779H56.2162Z" fill="#000"/>
</g>
<defs>
<clipPath id="clip0_302815_4220">
<rect width="64" height="64" fill="white"/>
</clipPath>
</defs>
</g></svg><svg viewBox="0 0 64.00006 56.581333"><g id="src-4" class="icon">
<g clip-path="url(#clip0_302815_4209)">
<path d="M29.851 29.9292H31.9833V39.5242H29.851V29.9292Z" fill="#000"/>
<path d="M38.3799 34.1936H40.5121V39.5242H38.3799V34.1936Z" fill="#000"/>
<path d="M21.3222 37.392H23.4544V39.5242H21.3222V37.392Z" fill="#000"/>
<path d="M14.9255 36.3258H17.0577V39.5241H14.9255V36.3258Z" fill="#000"/>
<path d="M3.19833 56.5819H54.3715C56.1378 56.5819 57.5699 55.1499 57.5699 53.3836V49.1192C57.5699 47.3529 56.1378 45.9209 54.3715 45.9209H53.3054V19.3343L59.3611 13.5977C60.7666 14.2905 62.4678 13.8699 63.3876 12.6003C64.308 11.3312 64.1789 9.58364 63.0826 8.46339C61.9863 7.34314 60.2424 7.17604 58.953 8.06776C57.6641 8.96 57.206 10.6513 57.8681 12.0719L53.3054 16.3973V13.9376C53.3054 12.1713 51.8734 10.7393 50.1071 10.7393H7.46276C5.6965 10.7393 4.26443 12.1713 4.26443 13.9376V45.9209H3.19833C1.43206 45.9209 0 47.3529 0 49.1192V53.3836C0 55.1499 1.43206 56.5819 3.19833 56.5819ZM60.7682 9.67317C61.3569 9.67317 61.8343 10.1505 61.8343 10.7393C61.8343 11.328 61.3569 11.8054 60.7682 11.8054C60.1794 11.8054 59.7021 11.328 59.7021 10.7393C59.7021 10.1505 60.1794 9.67317 60.7682 9.67317ZM6.39665 13.9376C6.39665 13.3489 6.874 12.8715 7.46276 12.8715H50.1071C50.6958 12.8715 51.1732 13.3489 51.1732 13.9376V18.4149L49.041 20.441V16.0698C49.041 15.4811 48.5636 15.0037 47.9749 15.0037H9.59498C9.00622 15.0037 8.52887 15.4811 8.52887 16.0698V42.7225C8.52887 43.3113 9.00622 43.7886 9.59498 43.7886H47.9749C48.5636 43.7886 49.041 43.3113 49.041 42.7225V23.3738L51.1732 21.3535V45.9209H6.39665V13.9376ZM15.9916 27.797C14.5492 27.7929 13.2826 28.7538 12.899 30.1442C12.5153 31.5346 13.1093 33.0094 14.3498 33.7455C15.5898 34.4815 17.1697 34.2967 18.2061 33.2936L21.912 35.1531C22.3425 35.3686 22.8646 35.2676 23.1847 34.9079L31.0624 26.0453L38.8062 31.848C39.2216 32.1593 39.8016 32.126 40.1784 31.7694L46.9088 25.3941V41.6564H10.6611V17.1359H46.9088V22.4566L39.3658 29.5997L31.5569 23.7455C31.1134 23.4134 30.4892 23.4758 30.1207 23.8897L22.1348 32.8751L19.1493 31.3821C19.1712 31.2541 19.1847 31.125 19.19 30.9953C19.19 29.2291 17.7579 27.797 15.9916 27.797ZM17.0577 30.9953C17.0577 31.5841 16.5804 32.0615 15.9916 32.0615C15.4029 32.0615 14.9255 31.5841 14.9255 30.9953C14.9255 30.4066 15.4029 29.9292 15.9916 29.9292C16.5804 29.9292 17.0577 30.4066 17.0577 30.9953ZM23.4544 48.0531H34.1155V49.1192C34.1155 49.7079 33.6381 50.1853 33.0494 50.1853H24.5205C23.9317 50.1853 23.4544 49.7079 23.4544 49.1192V48.0531ZM2.13222 49.1192C2.13222 48.5304 2.60957 48.0531 3.19833 48.0531H21.3222V49.1192C21.3222 50.8855 22.7542 52.3175 24.5205 52.3175H33.0494C34.8156 52.3175 36.2477 50.8855 36.2477 49.1192V48.0531H54.3715C54.9603 48.0531 55.4376 48.5304 55.4376 49.1192V53.3836C55.4376 53.9724 54.9603 54.4497 54.3715 54.4497H3.19833C2.60957 54.4497 2.13222 53.9724 2.13222 53.3836V49.1192Z" fill="#000"/>
</g>
<defs>
<clipPath id="clip0_302815_4209">
<rect width="64" height="64" fill="white"/>
</clipPath>
</defs>
</g></svg><svg viewBox="0 0 12.125333 16"><g id="src-5" class="icon">
<g clip-path="url(#clip0_575247_161)">
<path d="M10.6647 2.65661H12.1254V0.112606C11.8734 0.077939 11.0067 -6.10352e-05 9.99736 -6.10352e-05C7.89136 -6.10352e-05 6.4487 1.32461 6.4487 3.75927V5.99994H4.12469V8.84394H6.4487V15.9999H9.29803V8.84461H11.528L11.882 6.00061H9.29736V4.04127C9.29803 3.21927 9.51936 2.65661 10.6647 2.65661Z" fill="#F4F4FD"/>
</g>
<defs>
<clipPath id="clip0_575247_161">
<rect width="16" height="16" fill="white"/>
</clipPath>
</defs>
</g></svg><svg viewBox="0 0 16.025333 16"><g id="src-6" class="icon">
<g clip-path="url(#clip0_575247_149)">
<path d="M15.9843 4.70398C15.9468 3.85384 15.8093 3.26938 15.6124 2.76293C15.4092 2.22535 15.0967 1.74405 14.6872 1.34395C14.2871 0.937622 13.8026 0.621887 13.2713 0.421896C12.7619 0.224959 12.1805 0.0874805 11.3303 0.0499976C10.4738 0.00934021 10.2019 -6.10352e-05 8.02963 -6.10352e-05C5.85733 -6.10352e-05 5.58543 0.00934021 4.73212 0.0468231C3.88197 0.084306 3.29751 0.221906 2.79119 0.418722C2.25348 0.621887 1.77219 0.934448 1.37209 1.34395C0.965758 1.74405 0.650145 2.22852 0.450033 2.75988C0.253096 3.26938 0.115618 3.85067 0.0781347 4.70081C0.0374774 5.5573 0.0280762 5.8292 0.0280762 8.0015C0.0280762 10.1738 0.0374774 10.4457 0.0749603 11.299C0.112443 12.1492 0.250043 12.7336 0.446981 13.2401C0.650145 13.7777 0.965758 14.259 1.37209 14.6591C1.77219 15.0654 2.25666 15.3811 2.78801 15.5811C3.29751 15.778 3.8788 15.9155 4.72906 15.953C5.58226 15.9906 5.85428 15.9999 8.02658 15.9999C10.1989 15.9999 10.4708 15.9906 11.3241 15.953C12.1742 15.9155 12.7587 15.778 13.265 15.5811C14.3403 15.1654 15.1904 14.3152 15.6062 13.2401C15.803 12.7306 15.9406 12.1492 15.9781 11.299C16.0156 10.4457 16.025 10.1738 16.025 8.0015C16.025 5.8292 16.0218 5.5573 15.9843 4.70398ZM14.5435 11.2365C14.509 12.0179 14.3778 12.4399 14.2684 12.7212C13.9995 13.4182 13.4463 13.9714 12.7493 14.2403C12.468 14.3497 12.043 14.4809 11.2646 14.5152C10.4207 14.5528 10.1676 14.5621 8.03281 14.5621C5.89799 14.5621 5.64172 14.5528 4.80085 14.5152C4.01945 14.4809 3.5975 14.3497 3.31619 14.2403C2.96932 14.1121 2.65359 13.9089 2.39731 13.6432C2.13163 13.3838 1.92847 13.0712 1.80027 12.7243C1.69087 12.443 1.55962 12.0179 1.52532 11.2397C1.48771 10.3958 1.47843 10.1425 1.47843 8.00773C1.47843 5.87291 1.48771 5.61664 1.52532 4.7759C1.55962 3.99449 1.69087 3.57254 1.80027 3.29123C1.92847 2.94424 2.13163 2.62863 2.40049 2.37223C2.65981 2.10655 2.97237 1.90339 3.31937 1.77531C3.60067 1.66591 4.0258 1.53466 4.80403 1.50023C5.64794 1.46275 5.90117 1.45335 8.03586 1.45335C10.1738 1.45335 10.4269 1.46275 11.2678 1.50023C12.0492 1.53466 12.4712 1.66591 12.7525 1.77531C13.0993 1.90339 13.4151 2.10655 13.6714 2.37223C13.937 2.63168 14.1402 2.94424 14.2684 3.29123C14.3778 3.57254 14.509 3.99755 14.5435 4.7759C14.581 5.61981 14.5904 5.87291 14.5904 8.00773C14.5904 10.1425 14.581 10.3926 14.5435 11.2365Z" fill="#F4F4FD"/>
<path d="M8.02967 3.8913C5.76055 3.8913 3.91949 5.73223 3.91949 8.00147C3.91949 10.2707 5.76055 12.1117 8.02967 12.1117C10.2989 12.1117 12.1398 10.2707 12.1398 8.00147C12.1398 5.73223 10.2989 3.8913 8.02967 3.8913ZM8.02967 10.6676C6.55758 10.6676 5.3635 9.47368 5.3635 8.00147C5.3635 6.52926 6.55758 5.3353 8.02967 5.3353C9.50188 5.3353 10.6958 6.52926 10.6958 8.00147C10.6958 9.47368 9.50188 10.6676 8.02967 10.6676Z" fill="#F4F4FD"/>
<path d="M13.262 3.72883C13.262 4.25872 12.8324 4.68837 12.3024 4.68837C11.7725 4.68837 11.3428 4.25872 11.3428 3.72883C11.3428 3.19882 11.7725 2.76929 12.3024 2.76929C12.8324 2.76929 13.262 3.19882 13.262 3.72883Z" fill="#F4F4FD"/>
</g>
<defs>
<clipPath id="clip0_575247_149">
<rect width="16" height="16" fill="white"/>
</clipPath>
</defs>
</g></svg><svg viewBox="0 0 16 16"><g id="src-7" class="icon">
<g clip-path="url(#clip0_575247_165)">
<path d="M15.9961 16V15.9993H16.0001V10.1313C16.0001 7.26065 15.3821 5.04932 12.0261 5.04932C10.4128 5.04932 9.33009 5.93465 8.88809 6.77398H8.84143V5.31732H5.65942V15.9993H8.97276V10.71C8.97276 9.31732 9.23676 7.97065 10.9614 7.97065C12.6608 7.97065 12.6861 9.55998 12.6861 10.7993V16H15.9961Z" fill="#F4F4FD"/>
<path d="M0.264038 5.31793H3.58137V15.9999H0.264038V5.31793Z" fill="#F4F4FD"/>
<path d="M1.92139 -6.10352e-05C0.860728 -6.10352e-05 6.10352e-05 0.860606 6.10352e-05 1.92127C6.10352e-05 2.98194 0.860728 3.86061 1.92139 3.86061C2.98206 3.86061 3.84273 2.98194 3.84273 1.92127C3.84206 0.860606 2.98139 -6.10352e-05 1.92139 -6.10352e-05V-6.10352e-05Z" fill="#F4F4FD"/>
</g>
<defs>
<clipPath id="clip0_575247_165">
<rect width="16" height="16" fill="white"/>
</clipPath>
</defs>
</g></svg><svg viewBox="0 0 16 14.5"><g id="src-8" class="icon">
<g clip-path="url(#clip0_575247_155)">
<path d="M16 3.03894C15.405 3.29994 14.771 3.47294 14.11 3.55694C14.79 3.15094 15.309 2.51294 15.553 1.74394C14.919 2.12194 14.219 2.38894 13.473 2.53794C12.871 1.89694 12.013 1.49994 11.077 1.49994C9.261 1.49994 7.799 2.97394 7.799 4.78094C7.799 5.04094 7.821 5.29094 7.875 5.52894C5.148 5.39594 2.735 4.08894 1.114 2.09794C0.831 2.58894 0.665 3.15094 0.665 3.75594C0.665 4.89194 1.25 5.89894 2.122 6.48194C1.595 6.47194 1.078 6.31894 0.64 6.07794C0.64 6.08794 0.64 6.10094 0.64 6.11394C0.64 7.70794 1.777 9.03194 3.268 9.33694C3.001 9.40994 2.71 9.44494 2.408 9.44494C2.198 9.44494 1.986 9.43294 1.787 9.38894C2.212 10.6879 3.418 11.6429 4.852 11.6739C3.736 12.5469 2.319 13.0729 0.785 13.0729C0.516 13.0729 0.258 13.0609 0 13.0279C1.453 13.9649 3.175 14.4999 5.032 14.4999C11.068 14.4999 14.368 9.49994 14.368 5.16594C14.368 5.02094 14.363 4.88094 14.356 4.74194C15.007 4.27994 15.554 3.70294 16 3.03894Z" fill="#F4F4FD"/>
</g>
<defs>
<clipPath id="clip0_575247_155">
<rect width="16" height="16" fill="white"/>
</clipPath>
</defs>
</g></svg></svg>